<?xml version="1.0" standalone="no"?>
<!DOCTYPE svg PUBLIC "-//W3C//DTD SVG 20010904//EN"
 "http://www.w3.org/TR/2001/REC-SVG-20010904/DTD/svg10.dtd">
<svg version="1.0" xmlns="http://www.w3.org/2000/svg"
 width="16.000000pt" height="16.000000pt" viewBox="0 0 16.000000 16.000000"
 preserveAspectRatio="xMidYMid meet">
<metadata>
Created by potrace 1.11, written by Peter Selinger 2001-2013
</metadata>
<g transform="translate(0.000000,16.000000) scale(0.002286,-0.002286)"
fill="#000000" stroke="none">
<path d="M1279 6986 c-2 -2 -28 -7 -58 -11 -122 -15 -256 -55 -376 -110 -33
-16 -62 -29 -65 -29 -10 -2 -190 -115 -200 -126 -3 -3 -27 -23 -55 -45 -177
-142 -329 -355 -412 -575 -14 -36 -27 -72 -29 -80 -2 -8 -10 -39 -18 -68 -9
-30 -18 -70 -21 -90 -3 -20 -10 -62 -15 -92 -5 -33 -8 -946 -7 -2305 3 -2514
-4 -2273 74 -2505 105 -316 342 -605 626 -763 24 -14 52 -30 63 -35 59 -34
189 -82 289 -108 69 -18 80 -21 166 -33 76 -11 4509 -9 4554 2 17 4 64 14 105
23 201 44 445 164 594 294 107 94 215 220 294 345 86 138 166 362 189 530 10
76 11 4501 0 4575 -71 521 -443 971 -939 1135 -239 79 -71 74 -2544 74 -1216
0 -2213 -1 -2215 -3z"/>
</g>
</svg>
